<svg aria-hidden="true" style="width:0;height:0;position:absolute;overflow:hidden" xmlns="http://www.w3.org/2000/svg"><defs><symbol id="icon" viewBox="0 0 32 32"><path d="m31.609 29.724-7.959-7.959a13.275 13.275 0 0 0 3.016-8.453c0-7.376-5.979-13.355-13.355-13.355S-.044 5.936-.044 13.312s5.979 13.355 13.355 13.355c3.218 0 6.171-1.138 8.476-3.034l-.023.018 7.959 7.959a1.333 1.333 0 0 0 1.884-1.886zM13.333 24C7.442 24 2.666 19.224 2.666 13.333S7.442 2.666 13.333 2.666 24 7.442 24 13.333c-.007 5.888-4.778 10.66-10.666 10.667h-.001z"/></symbol></defs></svg>